<?xml version="1.0" encoding="utf-8"?>
<!-- Generator: Adobe Illustrator 26.5.0, SVG Export Plug-In . SVG Version: 6.00 Build 0)  -->
<svg version="1.1" xmlns="http://www.w3.org/2000/svg" xmlns:xlink="http://www.w3.org/1999/xlink" x="0px" y="0px"
	 viewBox="0 0 1920 1080" style="enable-background:new 0 0 1920 1080;" xml:space="preserve">
<style type="text/css">
	.st0{fill:url(#SVGID_1_);}
	.st1{fill:url(#SVGID_00000181803280736108457220000003822322151865467816_);}
	.st2{fill:#FFFFFF;}
</style>
<g id="Layer_1">
	<linearGradient id="SVGID_1_" gradientUnits="userSpaceOnUse" x1="0" y1="540" x2="3021.6831" y2="540">
		<stop  offset="0" style="stop-color:#009373"/>
		<stop  offset="1" style="stop-color:#002019"/>
	</linearGradient>
	<rect class="st0" width="1920" height="1080"/>
	
		<linearGradient id="SVGID_00000116923941031102696550000005992692163804105619_" gradientUnits="userSpaceOnUse" x1="102.7634" y1="686.2725" x2="2151.0347" y2="-1006.4545">
		<stop  offset="3.037730e-02" style="stop-color:#009373"/>
		<stop  offset="0.1608" style="stop-color:#008C6E"/>
		<stop  offset="0.3501" style="stop-color:#00795E"/>
		<stop  offset="0.5753" style="stop-color:#005946"/>
		<stop  offset="0.8262" style="stop-color:#002D23"/>
		<stop  offset="0.8955" style="stop-color:#002019"/>
	</linearGradient>
	<path style="fill:url(#SVGID_00000116923941031102696550000005992692163804105619_);" d="M1308,1080c-77.2-14.9-138-45.4-181.8-87
		c218.7-119.6,442-241.8,482.4-263.8c172.9-94.6,248.4-200.6,248.4-376.4c0-84.5-32.5-325.4-498.8-325.4
		c-576.3,0-665.5,524.7-665.5,765.5c0,38.5,3.8,76.2,11.1,112.9c-127.3,72-220.7,124.8-220.7,124.8c-44,24.9-75.2,40.4-99.8,49.3
		 M268-840L268-840 M1329.6,319.7c144.6,0,175,44.1,175,80.3c0,49.9-24.1,66.6-105.2,112.5c-27.9,15.8-180.6,102.1-353.5,199.9
		C1058.1,542.6,1115.8,319.7,1329.6,319.7z"/>
	<path class="st2" d="M310.1,152.7c-7,0-12.3-2-15.6-5.2c11.6-6.3,23.4-12.8,25.6-14c9.2-5,13.2-10.6,13.2-19.9
		c0-4.5-1.7-17.2-26.4-17.2c-30.5,0-35.3,27.8-35.3,40.6c0,2,0.2,4,0.6,6c-6.7,3.8-11.7,6.6-11.7,6.6c-4.2,2.4-6.2,3.2-7.9,3.2
		c-4.1,0-5.6-3.3-4.9-6.9l5.9-33.4h19.7l2.8-15.5h-19.8l2.7-15.5h-18.6L237.6,97H201c-16.4,0-24.3,10.9-24.3,22.1
		c0,6.2,2.7,11.4,9.9,15.8l16.3,9.9c1.5,0.9,2.2,2.6,1.9,4.3c-0.4,2.1-2.2,3.7-4.4,3.7l-51.3,0c-7,0-12.3-2-15.6-5.2
		c11.6-6.3,23.4-12.8,25.6-14c9.2-5,13.2-10.6,13.2-19.9c0-4.5-1.7-17.2-26.4-17.2c-30.5,0-35.3,27.8-35.3,40.6c0,2,0.2,4,0.6,6
		c-6.7,3.8-11.7,6.6-11.7,6.6c-4.2,2.4-6.2,3.2-7.9,3.2c-4.1,0-5.6-3.3-4.9-6.9l12.7-72.1H80.7L68,146.3c-2,11.4,5.6,21.9,18.4,21.9
		c8.2,0,13.8-2.4,23-7.4c0,0,3.3-1.8,8.2-4.5c6.1,7.2,15.8,11.9,28.2,11.9l52,0c18.4,0,26.5-11.8,26.5-21.7
		c0-8.4-3.6-11.9-10.8-16.3l-16.2-9.8c-1.5-0.9-2.3-2.7-2-4.4c0.4-2.1,2.1-3.5,4.2-3.5h35.4l-6,33.8c-2,11.4,5.6,21.9,18.4,21.9
		c8.2,0,13.8-2.4,23-7.4c0,0,3.3-1.8,8.2-4.5c6.1,7.2,15.8,11.9,28.2,11.9h23.8l2.7-15.5H310.1z M144.3,111.9c7.7,0,9.3,2.3,9.3,4.3
		c0,2.6-1.3,3.5-5.6,6c-1.5,0.8-9.6,5.4-18.7,10.6C130,123.7,133,111.9,144.3,111.9z M305.3,111.9c7.7,0,9.3,2.3,9.3,4.3
		c0,2.6-1.3,3.5-5.6,6c-1.5,0.8-9.6,5.4-18.7,10.6C290.9,123.7,293.9,111.9,305.3,111.9z"/>
</g>
<g id="Layer_2">
</g>
</svg>
